<?xml version="1.0" encoding="iso-8859-1"?>
<!-- Uploaded to: SVG Repo, www.svgrepo.com, Generator: SVG Repo Mixer Tools -->
<svg fill="#000000" height="800px" width="800px" version="1.1" id="Layer_1" xmlns="http://www.w3.org/2000/svg" xmlns:xlink="http://www.w3.org/1999/xlink" 
	 viewBox="0 0 512.002 512.002" xml:space="preserve">
<g>
	<g>
		<path d="M486.4,272.304H48.257c-17.468,0-31.68,14.212-31.68,31.68c0,14.632,9.974,26.973,23.478,30.597
			c3.797,52.214,47.49,93.537,100.657,93.537h40.886c53.251,0,96.997-41.456,100.671-93.789c0.087-0.055,0.182-0.096,0.267-0.155
			l15.512-10.664H486.4c14.117,0,25.602-11.485,25.602-25.602C512.001,283.789,500.516,272.304,486.4,272.304z M181.596,411.17
			H140.71c-43.446,0-79.293-33.164-83.556-75.505h207.996C260.889,378.005,225.042,411.17,181.596,411.17z M486.4,306.561H295.416
			c-1.714,0-3.388,0.52-4.801,1.49l-15.512,10.664h-1.053H48.257c-8.123,0-14.731-6.609-14.731-14.731
			c0-8.123,6.609-14.731,14.731-14.731h438.142c4.771,0,8.654,3.882,8.654,8.654S491.171,306.561,486.4,306.561z"/>
	</g>
</g>
<g>
	<g>
		<path d="M486.933,173.137H257.432c-2.723,0-5.412-0.438-7.993-1.3c-4.437-1.486-9.24,0.91-10.725,5.347
			c-1.485,4.439,0.91,9.24,5.348,10.725c4.317,1.444,8.815,2.177,13.37,2.177h229.504c4.475,0,8.118,3.642,8.118,8.118
			s-3.642,8.119-8.118,8.119H251.87h-0.07h-87.031h-0.07h-28.963h-0.07h-87.03h-0.069c-6.702,0-12.395-4.407-14.333-10.475
			l79.802-44.746c0.047-0.026,0.097-0.044,0.143-0.071c0.043-0.025,0.081-0.054,0.123-0.079l3.017-1.691
			c2.66-1.491,5.844-1.792,8.736-0.825l74.579,25.088c4.44,1.489,9.24-0.908,10.725-5.348c1.485-4.438-0.91-9.24-5.348-10.724
			l-74.578-25.088c-5.913-1.978-12.302-1.882-18.109,0.175l-25.513-44.4c-2.333-4.06-7.513-5.46-11.57-3.126
			c-4.057,2.331-5.457,7.511-3.125,11.569l25.221,43.891l-8.781,4.924L64.258,101.36c-2.333-4.06-7.513-5.458-11.57-3.126
			c-4.057,2.331-5.457,7.511-3.125,11.569l25.211,43.873l-8.563,4.802l-25.32-44.063c-2.332-4.059-7.513-5.457-11.57-3.126
			c-4.057,2.331-5.457,7.511-3.125,11.569l25.231,43.908l-10.29,5.769l-25.314-44.053c-2.332-4.06-7.513-5.458-11.57-3.126
			c-4.057,2.331-5.457,7.511-3.125,11.569l25.226,43.899l-5.447,3.057c-2.674,1.499-4.33,4.326-4.33,7.392
			c0,14.684,9.949,27.081,23.456,30.824l-0.251,30.988c-0.037,4.68,3.725,8.505,8.405,8.543c0.024,0,0.046,0,0.07,0
			c4.647,0,8.435-3.749,8.473-8.405l0.242-29.96h12.085l-0.241,29.823c-0.037,4.68,3.725,8.505,8.405,8.543c0.024,0,0.046,0,0.07,0
			c4.647,0,8.435-3.749,8.473-8.405l0.242-29.96h12.085l-0.241,29.823c-0.037,4.68,3.725,8.505,8.405,8.543c0.024,0,0.046,0,0.07,0
			c4.647,0,8.435-3.749,8.473-8.405l0.242-29.96h12.085l-0.241,29.823c-0.038,4.68,3.725,8.503,8.405,8.543c0.024,0,0.046,0,0.07,0
			c4.647,0,8.435-3.749,8.472-8.405l0.242-29.96h12.084l-0.241,29.823c-0.038,4.68,3.725,8.505,8.405,8.543c0.024,0,0.046,0,0.07,0
			c4.647,0,8.435-3.749,8.472-8.405l0.242-29.96h12.084l-0.241,29.823c-0.038,4.68,3.725,8.505,8.405,8.543c0.024,0,0.046,0,0.07,0
			c4.647,0,8.435-3.749,8.472-8.405l0.242-29.96h12.084l-0.241,29.823c-0.038,4.68,3.725,8.505,8.405,8.543c0.024,0,0.046,0,0.07,0
			c4.647,0,8.435-3.749,8.472-8.405l0.242-29.96h12.085l-0.241,29.823c-0.038,4.68,3.725,8.503,8.405,8.543c0.024,0,0.046,0,0.07,0
			c4.647,0,8.435-3.749,8.472-8.405l0.242-29.96h226.728c13.821,0,25.066-11.245,25.066-25.068
			C511.999,184.382,500.755,173.137,486.933,173.137z"/>
	</g>
</g>
</svg>